<svg width="847" height="761" viewBox="0 0 847 761" fill="none" xmlns="http://www.w3.org/2000/svg">
<path d="M596.111 472.587C566.513 585.352 445.31 628.657 342.048 590.788C318.367 582.078 235.814 516.539 233.632 494.016C228.436 440.217 303.325 491.611 324.414 495.531C367.531 503.528 446.705 513.759 488.942 511.04C531.179 508.32 556.922 476.15 596.103 472.657L596.111 472.587Z" fill="#F26F0E"/>
<path d="M407.55 310.15C492.485 300.136 518.998 345.841 585.355 376.99C652.171 408.322 717.056 382.45 673.543 507.914C595.893 731.588 162.832 690.409 141.225 482.904C130.356 378.83 203.005 407.626 266.875 382.849C310.12 366.09 356.451 316.173 407.618 310.156L407.55 310.15ZM596.111 472.587C556.854 476.143 531.525 508.282 488.95 510.97C446.374 513.658 367.539 503.459 324.422 495.461C303.333 491.541 228.444 440.148 233.64 493.946C235.822 516.469 318.375 582.009 342.056 590.718C445.31 628.656 566.514 585.352 596.119 472.518L596.111 472.587Z" fill="#FCBC00"/>
<path d="M184.702 153.83C293.978 153.916 227.11 395.525 134.821 301.232C82.8436 248.051 120.293 153.718 184.702 153.83Z" fill="black"/>
<path d="M699.464 177.484C742.525 232.075 671.569 360.655 603.066 307.267C524.529 246.018 631.112 90.875 699.464 177.484Z" fill="black"/>
</svg>
