<svg width="272" height="304" viewBox="0 0 272 304" fill="none" xmlns="http://www.w3.org/2000/svg">
<g clip-path="url(#clip0_4571_36484)">
<path fill-rule="evenodd" clip-rule="evenodd" d="M-93.0553 196.223C-126.935 276.292 -26.7564 328.195 27.5605 344.14C189.742 382.367 199.923 277.907 198.866 265.035C198.661 262.598 198.196 260.884 197.553 259.603C202.324 256.449 207.939 252.389 214.46 247.188C246.089 222.002 224.447 209.163 213.647 214.36C207.894 217.128 200.204 213.945 194.114 209.992C194.607 207.914 195.14 205.729 195.697 203.446C212.604 135.524 180.112 81.402 101.338 56.1894C51.2676 40.1681 3.42405 60.652 -35.666 103.396C-43.7441 102.964 -55.3267 100.583 -58.4275 93.2065C-63.0719 82.1571 -87.7875 77.4293 -80.7926 117.251C-77.6369 135.206 -74.1757 146.198 -71.2957 152.534C-79.2275 166.125 -86.5038 180.76 -93.0441 196.227L-93.0553 196.223Z" fill="white"/>
<path d="M109.391 199.432C99.3023 217.869 76.7747 219.849 60.9377 208.4C57.3069 205.771 46.229 190.423 46.8696 186.365C48.4021 176.672 58.8134 189.178 62.219 190.846C69.1825 194.254 82.1691 199.728 89.4642 201.211C96.7593 202.695 102.575 198.238 109.386 199.444L109.391 199.432Z" fill="#F26F0E"/>
<path d="M84.6594 162.138C99.5333 164.323 101.984 173.584 111.855 182.138C121.796 190.745 133.977 189.213 120.955 209.234C97.7275 244.925 26.0298 217.58 31.6751 180.121C34.501 161.332 45.5462 169.765 57.5052 168.378C65.6019 167.442 75.7108 160.824 84.6706 162.143L84.6594 162.138ZM109.391 199.432C102.564 198.234 96.8199 202.704 89.4687 201.199C82.1176 199.695 69.187 194.242 62.2235 190.835C58.8179 189.166 48.4066 176.66 46.8741 186.353C46.2335 190.411 57.3114 205.759 60.9422 208.389C76.7747 219.849 99.3024 217.869 109.395 199.42L109.391 199.432Z" fill="#FCBC00"/>
<path d="M53.8305 124.327C72.3847 129.417 50.1831 168.758 38.7425 147.907C32.3025 136.15 42.897 121.316 53.8305 124.327Z" fill="black"/>
<path d="M140.19 152.387C145.052 163.977 127.23 183.272 117.993 170.711C107.405 156.304 132.469 133.997 140.19 152.387Z" fill="black"/>
</g>
<defs>
<clipPath id="clip0_4571_36484">
<rect width="338.607" height="337.884" fill="white" transform="translate(-45.2695) rotate(20.7538)"/>
</clipPath>
</defs>
</svg>
