<svg width="578" height="529" viewBox="0 0 578 529" fill="none" xmlns="http://www.w3.org/2000/svg">
<g clip-path="url(#clip0_4567_47630)">
<path d="M53.3295 557.541C51.7793 562.364 49.3326 566.99 47.9116 571.838C41.1794 594.79 61.6394 624.328 49.5953 639.333C42.4534 648.234 21.6225 633.952 11.5267 631.795C5.45299 630.495 -0.934723 634.843 -8.72976 632.533C-23.0998 628.231 -19.9596 619.029 -26.2762 614.038C-35.4125 606.786 -68.6364 600.131 -47.3604 582.547C-32.1764 569.996 -9.48565 576.807 5.02512 559.686C12.4781 550.879 16.2504 543.609 19.3104 532.422C28.3084 540.527 42.9011 551.563 53.3014 557.554L53.3295 557.541Z" fill="#F26F0E"/>
<path fill-rule="evenodd" clip-rule="evenodd" d="M-76.9771 347.205C-136.982 488.712 43.8916 581.898 141.816 610.806C434.09 680.494 451.161 495.475 449.106 472.649C448.709 468.328 447.85 465.285 446.679 463.006C455.227 457.474 465.281 450.344 476.952 441.204C533.563 396.944 494.468 373.931 475.096 383.012C464.778 387.849 450.904 382.115 439.899 375.037C440.761 371.359 441.694 367.494 442.669 363.454C472.28 243.274 413.169 146.963 271.129 101.337C180.844 72.3443 95.0027 108.078 25.177 183.368C10.6367 182.506 -10.2325 178.149 -15.8999 165.038C-24.3885 145.399 -68.9165 136.724 -55.8551 207.386C-49.9627 239.246 -43.6036 258.769 -38.346 270.033C-52.4556 294.027 -65.3733 319.878 -76.9569 347.213L-76.9771 347.205Z" fill="white"/>
<path d="M287.328 355.31C269.395 387.866 228.885 391.106 200.252 370.626C193.688 365.922 173.572 338.588 174.676 331.403C177.318 314.242 196.2 336.533 202.348 339.53C214.918 345.652 238.351 355.509 251.495 358.225C264.639 360.942 275.05 353.113 287.32 355.331L287.328 355.31Z" fill="#F26F0E"/>
<path d="M242.383 288.917C269.172 292.967 273.692 309.41 291.556 324.688C309.545 340.061 331.444 337.491 308.253 372.821C266.885 435.8 137.551 386.48 147.261 320.157C152.122 286.89 172.096 301.967 193.598 299.652C208.156 298.089 226.266 286.48 242.403 288.925L242.383 288.917ZM287.328 355.31C275.03 353.105 264.748 360.959 251.503 358.204C238.258 355.449 214.926 345.631 202.356 339.509C196.208 336.512 177.326 314.221 174.684 331.382C173.58 338.567 193.696 365.901 200.26 370.606C228.885 391.106 269.396 387.866 287.336 355.289L287.328 355.31Z" fill="#FCBC00"/>
<path d="M186.46 221.534C219.906 230.776 180.428 300.238 159.594 263.146C147.866 242.232 166.751 216.068 186.46 221.534Z" fill="black"/>
<path d="M342.184 272.296C351.071 292.897 319.234 326.881 302.463 304.509C283.239 278.847 328.073 239.611 342.184 272.296Z" fill="black"/>
</g>
<defs>
<clipPath id="clip0_4567_47630">
<rect width="610.796" height="597.322" fill="white" transform="translate(6.66302) rotate(20.7538)"/>
</clipPath>
</defs>
</svg>
